<?xml version="1.0" standalone="no"?>
<!DOCTYPE svg PUBLIC "-//W3C//DTD SVG 20010904//EN"
 "http://www.w3.org/TR/2001/REC-SVG-20010904/DTD/svg10.dtd">
<svg version="1.0" xmlns="http://www.w3.org/2000/svg"
 width="512.000000pt" height="512.000000pt" viewBox="0 0 512.000000 512.000000"
 preserveAspectRatio="xMidYMid meet">

<g transform="translate(0.000000,512.000000) scale(0.100000,-0.100000)"
fill="#000000" stroke="none">
<path d="M0 2560 l0 -2560 2560 0 2560 0 0 2560 0 2560 -2560 0 -2560 0 0
-2560z m3092 319 c111 -24 203 -89 254 -181 26 -47 29 -63 29 -138 0 -69 -4
-94 -23 -132 -33 -66 -96 -126 -172 -162 -127 -59 -317 -45 -419 32 -25 20
-52 43 -59 51 -23 28 -72 105 -72 113 0 4 29 8 64 8 55 0 66 -3 71 -20 8 -27
61 -69 120 -96 85 -40 206 -30 287 24 37 24 88 94 88 120 0 9 -42 12 -145 12
l-145 0 0 45 0 45 145 0 c165 0 164 -1 113 76 -49 72 -125 108 -227 109 -67 0
-86 -4 -136 -30 -38 -19 -70 -45 -90 -72 -29 -40 -32 -42 -87 -42 -32 -1 -58
2 -58 7 0 4 13 30 30 58 80 141 254 210 432 173z m1390 0 c106 -23 182 -74
239 -162 21 -33 39 -64 39 -69 0 -4 -27 -8 -60 -8 -56 0 -60 2 -75 30 -19 37
-86 84 -154 106 -146 47 -327 -48 -347 -183 -22 -145 81 -254 248 -262 65 -3
85 1 131 22 49 22 127 89 127 109 0 4 29 8 65 8 l65 0 -21 -41 c-34 -67 -103
-133 -172 -165 -57 -27 -71 -29 -177 -29 -108 0 -119 2 -182 32 -127 60 -198
162 -198 284 0 89 23 149 80 212 94 103 244 147 392 116z m-4012 -256 l0 -248
248 248 247 247 58 0 57 0 0 -315 0 -315 -55 0 -55 0 0 246 0 246 -252 -246
-253 -246 -52 0 -53 0 0 315 0 315 55 0 55 0 0 -247z m829 132 c-1 -63 1 -115
5 -115 3 0 103 0 221 0 l215 0 0 115 0 115 60 0 60 0 0 -101 0 -100 -57 -67
-56 -67 57 -3 57 -3 -3 -142 -3 -142 -57 -3 -58 -3 0 146 0 145 -224 0 -224 0
-56 69 -56 68 0 102 0 101 61 0 60 0 -2 -115z m1341 65 l0 -50 -145 0 -145 0
0 -265 0 -266 -57 3 -58 3 0 263 0 262 -147 0 -148 0 0 50 0 50 350 0 350 0 0
-50z m930 -65 c0 -63 3 -115 6 -115 3 0 76 52 162 115 l157 115 89 0 c49 0 87
-2 85 -4 -2 -2 -83 -59 -179 -126 -96 -68 -185 -131 -197 -140 -22 -17 -20
-19 182 -181 113 -90 205 -167 205 -171 0 -5 -36 -8 -80 -8 l-80 0 -172 144
-173 145 -3 -145 -3 -144 -54 0 -55 0 0 315 0 315 55 0 55 0 0 -115z m-2275
-370 l0 -140 -55 0 -55 0 -3 143 -3 143 58 -3 58 -3 0 -140z"/>
</g>
</svg>
