<?xml version="1.0" encoding="UTF-8"?>
<svg id="_Слой_1" data-name="Слой 1" xmlns="http://www.w3.org/2000/svg" viewBox="0 0 1148.19 376.74">
  <defs>
    <style>
      .cls-1 {
        fill: #fff;
      }

      .cls-2 {
        fill: none;
        opacity: 0;
        stroke: #2d3f41;
        stroke-miterlimit: 10;
      }
    </style>
  </defs>
  <path class="cls-1" d="M156.13,125.58v99.62l100.12-99.62h22.06v125.58h-22.06v-99.61l-100.12,99.61h-22.06V125.58h22.06Z"/>
  <path class="cls-1" d="M589.88,125.58v19.52h-58.21v106.06h-22.06v-106.06h-59.06v-19.52h139.32Zm-139.32,19.01v-19.01h139.32l-139.32,19.01Z"/>
  <path class="cls-1" d="M700.52,130.93c11.65,5.71,20.84,13.61,27.58,23.67,6.73,10.07,10.1,21.38,10.1,33.94s-3.37,23.53-10.1,33.6c-6.73,10.07-15.95,17.99-27.66,23.76-11.71,5.77-24.64,8.66-38.78,8.66-17.08,0-31.99-4.13-44.72-12.39-12.73-8.26-22.26-20.31-28.59-36.15h23.93c3.28,6.34,7.69,11.71,13.24,16.12,5.54,4.41,11.48,7.72,17.82,9.93,6.33,2.21,12.39,3.31,18.16,3.31,8.83,0,17.06-1.44,24.69-4.33,7.64-2.89,14.06-7.21,19.26-12.98,5.2-5.77,8.54-12.73,10.01-20.87h-59.06v-17.48h58.89c-1.59-8.03-5.15-14.93-10.69-20.7-5.54-5.77-12.16-10.12-19.85-13.07-7.69-2.94-15.44-4.41-23.25-4.41-5.88,0-12.25,1.16-19.09,3.48-6.85,2.32-13.1,5.74-18.75,10.27-5.66,4.53-9.67,9.96-12.05,16.29l-23.08-.34c5.77-15.61,15.13-27.66,28.09-36.15,12.95-8.49,27.97-12.73,45.06-12.73,14.25,0,27.21,2.86,38.86,8.57Z"/>
  <path class="cls-1" d="M795.72,183.11l83.83,68.05h-33.77l-69.24-58.21v58.21h-22.06V125.58h22.06v48.54l66.01-48.54h34.28l-81.12,57.53Z"/>
  <path class="cls-1" d="M874.38,154.6c6.73-10.07,15.92-17.96,27.58-23.67,11.65-5.71,24.61-8.57,38.86-8.57,17.08,0,32.1,4.24,45.06,12.73,12.95,8.49,22.32,20.53,28.09,36.15l-23.08,.34c-2.38-6.33-6.39-11.77-12.05-16.29-5.66-4.52-11.91-7.95-18.75-10.27-6.85-2.32-13.21-3.48-19.09-3.48-8.82,0-17.45,1.84-25.88,5.52-8.43,3.68-15.33,9.08-20.7,16.21-5.37,7.13-8.06,15.56-8.06,25.29s2.49,18.44,7.47,25.46c4.98,7.02,11.62,12.33,19.94,15.95,8.32,3.62,17.39,5.43,27.24,5.43,5.77,0,11.82-1.1,18.16-3.31,6.33-2.21,12.27-5.52,17.82-9.93,5.54-4.41,9.95-9.78,13.24-16.12h23.93c-6.34,15.84-15.87,27.89-28.59,36.15-12.73,8.26-27.63,12.39-44.72,12.39-14.14,0-27.07-2.89-38.78-8.66-11.71-5.77-20.93-13.69-27.66-23.76-6.73-10.07-10.1-21.27-10.1-33.6s3.37-23.87,10.1-33.94Z"/>
  <g>
    <rect class="cls-1" x="298.67" y="193.75" width="22.06" height="57.41"/>
    <polygon class="cls-1" points="432.74 166.98 432.74 125.58 410.67 125.58 410.67 173.27 320.73 173.27 320.73 125.58 298.67 125.58 298.67 166.81 320.88 193.63 410.67 193.63 432.74 166.98"/>
    <rect class="cls-1" x="410.67" y="193.75" width="22.06" height="57.41"/>
  </g>
  <rect class="cls-2" width="1148.19" height="376.74"/>
</svg>
